<?xml version="1.0" encoding="UTF-8"?>
<svg id="Layer_1" data-name="Layer 1" xmlns="http://www.w3.org/2000/svg" xmlns:xlink="http://www.w3.org/1999/xlink" viewBox="0 0 700 700">
  <defs>
    <style>
      .cls-1 {
        fill: url(#linear-gradient);
      }

      .cls-2 {
        fill: url(#linear-gradient-3);
      }

      .cls-3 {
        fill: url(#linear-gradient-4);
      }

      .cls-4 {
        fill: url(#linear-gradient-2);
      }
    </style>
    <linearGradient id="linear-gradient" x1="133.37" y1="163.07" x2="437.16" y2="466.86" gradientUnits="userSpaceOnUse">
      <stop offset="0" stop-color="#45166a"/>
      <stop offset=".34" stop-color="#48156b"/>
      <stop offset=".59" stop-color="#511572"/>
      <stop offset=".82" stop-color="#61157c"/>
      <stop offset=".99" stop-color="#741588"/>
    </linearGradient>
    <linearGradient id="linear-gradient-2" x1="470.25" y1="437.58" x2="555.12" y2="522.45" xlink:href="#linear-gradient"/>
    <linearGradient id="linear-gradient-3" x1="142.72" y1="437.58" x2="227.59" y2="522.45" xlink:href="#linear-gradient"/>
    <linearGradient id="linear-gradient-4" x1="471.54" y1="226.52" x2="658.59" y2="413.56" xlink:href="#linear-gradient"/>
  </defs>
  <path className="cls-1" d="M118.2,178.25c-23.64,23.06-36.66,54.09-36.66,87.35v166.51c0,7.09,5.75,12.84,12.84,12.84s12.84-5.75,12.84-12.84v-166.51c0-26.29,10.27-50.78,28.91-68.97,18.6-18.15,43.53-28.15,70.18-28.15h207.3V439.03h-117.56c-7.09,0-12.84,5.75-12.84,12.84s5.75,12.84,12.84,12.84h143.25V142.81H206.32c-33.39,0-64.69,12.59-88.12,35.45Z"/>
  <path className="cls-4" d="M512.69,419.98c-33.11,0-60.04,26.93-60.04,60.04s26.93,60.04,60.04,60.04,60.04-26.93,60.04-60.04-26.93-60.04-60.04-60.04Zm0,94.4c-18.94,0-34.35-15.41-34.35-34.35s15.41-34.35,34.35-34.35,34.35,15.41,34.35,34.35-15.41,34.35-34.35,34.35Z"/>
  <path className="cls-2" d="M185.15,419.98c-33.11,0-60.04,26.93-60.04,60.04s26.93,60.04,60.04,60.04,60.04-26.93,60.04-60.04-26.93-60.04-60.04-60.04Zm0,94.4c-18.94,0-34.35-15.41-34.35-34.35s15.41-34.35,34.35-34.35,34.35,15.41,34.35,34.35-15.41,34.35-34.35,34.35Z"/>
  <path className="cls-3" d="M528.01,214.44h-39.08c-7.09,0-12.84,5.75-12.84,12.84s5.75,12.84,12.84,12.84h39.08c35.71,0,64.76,29.05,64.76,64.75v29.98h-67.24v-43.11c0-7.09-5.75-12.84-12.84-12.84s-12.84,5.75-12.84,12.84v44.1c0,13.62,11.08,24.69,24.69,24.69h68.23v87.82c0,7.09,5.75,12.84,12.84,12.84s12.84-5.75,12.84-12.84v-143.49c0-49.87-40.57-90.44-90.44-90.44Z"/>
</svg>